<svg width="17" height="18" viewBox="0 0 17 18" fill="none" xmlns="http://www.w3.org/2000/svg">
<g clip-path="url(#clip0_7_574)">
<path d="M11.6425 15.0605V13.6439C11.6425 12.8924 11.3615 12.1718 10.8614 11.6404C10.3614 11.1091 9.68307 10.8105 8.97583 10.8105H3.6425C2.93525 10.8105 2.25698 11.1091 1.75688 11.6404C1.25678 12.1718 0.97583 12.8924 0.97583 13.6439V15.0605" stroke="black" stroke-linecap="round" stroke-linejoin="round"/>
<path d="M6.30925 7.97721C7.782 7.97721 8.97591 6.70869 8.97591 5.14388C8.97591 3.57907 7.782 2.31055 6.30925 2.31055C4.83649 2.31055 3.64258 3.57907 3.64258 5.14388C3.64258 6.70869 4.83649 7.97721 6.30925 7.97721Z" stroke="black" stroke-linecap="round" stroke-linejoin="round"/>
<path d="M15.6426 15.0605V13.6438C15.6421 13.0161 15.4455 12.4062 15.0835 11.9101C14.7215 11.4139 14.2147 11.0595 13.6426 10.9026" stroke="black" stroke-linecap="round" stroke-linejoin="round"/>
<path d="M10.9758 2.40259C11.5494 2.55863 12.0579 2.91308 12.4209 3.41006C12.784 3.90703 12.9811 4.51826 12.9811 5.14738C12.9811 5.7765 12.784 6.38773 12.4209 6.8847C12.0579 7.38168 11.5494 7.73613 10.9758 7.89217" stroke="black" stroke-linecap="round" stroke-linejoin="round"/>
</g>
<defs>
<clipPath id="clip0_7_574">
<rect width="16" height="17" fill="white" transform="translate(0.309204 0.185547)"/>
</clipPath>
</defs>
</svg>
