<svg width="14" height="14" viewBox="0 0 14 14" fill="none" xmlns="http://www.w3.org/2000/svg">
<path d="M5.46766 6.76446H1.13433C1.01325 6.76446 0.912109 6.66332 0.912109 6.54224V0.764459C0.912109 0.643379 1.01325 0.542236 1.13433 0.542236H5.46766C5.58874 0.542236 5.68989 0.643379 5.68989 0.764459V6.54224C5.68989 6.66332 5.58874 6.76446 5.46766 6.76446ZM5.46766 12.5422H1.13433C1.01325 12.5422 0.912109 12.4411 0.912109 12.32V9.43112C0.912109 9.31004 1.01325 9.2089 1.13433 9.2089H5.46766C5.58874 9.2089 5.68989 9.31004 5.68989 9.43112V12.32C5.68989 12.4411 5.58874 12.5422 5.46766 12.5422ZM12.6899 12.5422H8.35655C8.23547 12.5422 8.13433 12.4411 8.13433 12.32V6.54224C8.13433 6.42116 8.23547 6.32001 8.35655 6.32001H12.6899C12.811 6.32001 12.9121 6.42116 12.9121 6.54224V12.32C12.9121 12.4411 12.811 12.5422 12.6899 12.5422ZM8.13433 3.65335V0.764459C8.13433 0.643378 8.23547 0.542236 8.35655 0.542236H12.6899C12.811 0.542236 12.9121 0.643379 12.9121 0.764459V3.65335C12.9121 3.77443 12.811 3.87557 12.6899 3.87557H8.35655C8.23547 3.87557 8.13433 3.77443 8.13433 3.65335Z" stroke="black"/>
</svg>
